<svg width="865" height="351" viewBox="0 0 865 351" fill="none" xmlns="http://www.w3.org/2000/svg">
<g opacity="0.9">
<rect x="614.5" y="0.499985" width="50" height="50" fill="black"/>
<rect x="614.5" y="0.499985" width="50" height="50" fill="black"/>
<rect x="664.5" y="50.5" width="50" height="50" fill="black"/>
<rect x="714.5" y="100.5" width="50" height="50" fill="black"/>
<rect x="764.5" y="150.5" width="50" height="50" fill="black"/>
<rect x="714.5" y="200.5" width="50" height="50" fill="black"/>
<rect x="664.5" y="250.5" width="50" height="50" fill="black"/>
<rect x="614.5" y="300.5" width="50" height="50" fill="black"/>
<rect x="664.5" y="0.499985" width="50" height="50" fill="black"/>
<rect x="664.5" y="0.499985" width="50" height="50" fill="black"/>
<rect x="714.5" y="50.5" width="50" height="50" fill="black"/>
<rect x="764.5" y="100.5" width="50" height="50" fill="black"/>
<rect x="814.5" y="150.5" width="50" height="50" fill="black"/>
<rect x="764.5" y="200.5" width="50" height="50" fill="black"/>
<rect x="714.5" y="250.5" width="50" height="50" fill="black"/>
<rect x="664.5" y="300.5" width="50" height="50" fill="black"/>
<rect x="407.5" y="0.499985" width="50" height="50" fill="black"/>
<rect x="407.5" y="0.499985" width="50" height="50" fill="black"/>
<rect x="457.5" y="50.5" width="50" height="50" fill="black"/>
<rect x="507.5" y="100.5" width="50" height="50" fill="black"/>
<rect x="557.5" y="150.5" width="50" height="50" fill="black"/>
<rect x="507.5" y="200.5" width="50" height="50" fill="black"/>
<rect x="457.5" y="250.5" width="50" height="50" fill="black"/>
<rect x="407.5" y="300.5" width="50" height="50" fill="black"/>
<rect x="457.5" y="0.499985" width="50" height="50" fill="black"/>
<rect x="457.5" y="0.499985" width="50" height="50" fill="black"/>
<rect x="507.5" y="50.5" width="50" height="50" fill="black"/>
<rect x="557.5" y="100.5" width="50" height="50" fill="black"/>
<rect x="607.5" y="150.5" width="50" height="50" fill="black"/>
<rect x="557.5" y="200.5" width="50" height="50" fill="black"/>
<rect x="507.5" y="250.5" width="50" height="50" fill="black"/>
<rect x="457.5" y="300.5" width="50" height="50" fill="black"/>
</g>
<g opacity="0.9">
<rect x="614.5" y="0.499985" width="50" height="50" fill="black"/>
<rect x="614.5" y="0.499985" width="50" height="50" fill="black"/>
<rect x="664.5" y="50.5" width="50" height="50" fill="black"/>
<rect x="714.5" y="100.5" width="50" height="50" fill="black"/>
<rect x="764.5" y="150.5" width="50" height="50" fill="black"/>
<rect x="714.5" y="200.5" width="50" height="50" fill="black"/>
<rect x="664.5" y="250.5" width="50" height="50" fill="black"/>
<rect x="614.5" y="300.5" width="50" height="50" fill="black"/>
<rect x="664.5" y="0.499985" width="50" height="50" fill="black"/>
<rect x="664.5" y="0.499985" width="50" height="50" fill="black"/>
<rect x="714.5" y="50.5" width="50" height="50" fill="black"/>
<rect x="764.5" y="100.5" width="50" height="50" fill="black"/>
<rect x="814.5" y="150.5" width="50" height="50" fill="black"/>
<rect x="764.5" y="200.5" width="50" height="50" fill="black"/>
<rect x="714.5" y="250.5" width="50" height="50" fill="black"/>
<rect x="664.5" y="300.5" width="50" height="50" fill="black"/>
<rect x="407.5" y="0.499985" width="50" height="50" fill="black"/>
<rect x="407.5" y="0.499985" width="50" height="50" fill="black"/>
<rect x="457.5" y="50.5" width="50" height="50" fill="black"/>
<rect x="507.5" y="100.5" width="50" height="50" fill="black"/>
<rect x="557.5" y="150.5" width="50" height="50" fill="black"/>
<rect x="507.5" y="200.5" width="50" height="50" fill="black"/>
<rect x="457.5" y="250.5" width="50" height="50" fill="black"/>
<rect x="407.5" y="300.5" width="50" height="50" fill="black"/>
<rect x="457.5" y="0.499985" width="50" height="50" fill="black"/>
<rect x="457.5" y="0.499985" width="50" height="50" fill="black"/>
<rect x="507.5" y="50.5" width="50" height="50" fill="black"/>
<rect x="557.5" y="100.5" width="50" height="50" fill="black"/>
<rect x="607.5" y="150.5" width="50" height="50" fill="black"/>
<rect x="557.5" y="200.5" width="50" height="50" fill="black"/>
<rect x="507.5" y="250.5" width="50" height="50" fill="black"/>
<rect x="457.5" y="300.5" width="50" height="50" fill="black"/>
</g>
<g opacity="0.9">
<rect x="250" y="350" width="50" height="50" transform="rotate(-180 250 350)" fill="black"/>
<rect x="250" y="350" width="50" height="50" transform="rotate(-180 250 350)" fill="black"/>
<rect x="200" y="300" width="50" height="50" transform="rotate(-180 200 300)" fill="black"/>
<rect x="150" y="250" width="50" height="50" transform="rotate(-180 150 250)" fill="black"/>
<rect x="100" y="200" width="50" height="50" transform="rotate(-180 100 200)" fill="black"/>
<rect x="150" y="150" width="50" height="50" transform="rotate(-180 150 150)" fill="black"/>
<rect x="200" y="100" width="50" height="50" transform="rotate(-180 200 100)" fill="black"/>
<rect x="250" y="50" width="50" height="50" transform="rotate(-180 250 50)" fill="black"/>
<rect x="200" y="350" width="50" height="50" transform="rotate(-180 200 350)" fill="black"/>
<rect x="200" y="350" width="50" height="50" transform="rotate(-180 200 350)" fill="black"/>
<rect x="150" y="300" width="50" height="50" transform="rotate(-180 150 300)" fill="black"/>
<rect x="100" y="250" width="50" height="50" transform="rotate(-180 100 250)" fill="black"/>
<rect x="50" y="200" width="50" height="50" transform="rotate(-180 50 200)" fill="black"/>
<rect x="100" y="150" width="50" height="50" transform="rotate(-180 100 150)" fill="black"/>
<rect x="150" y="100" width="50" height="50" transform="rotate(-180 150 100)" fill="black"/>
<rect x="200" y="50" width="50" height="50" transform="rotate(-180 200 50)" fill="black"/>
<rect x="457" y="350" width="50" height="50" transform="rotate(-180 457 350)" fill="black"/>
<rect x="457" y="350" width="50" height="50" transform="rotate(-180 457 350)" fill="black"/>
<rect x="407" y="300" width="50" height="50" transform="rotate(-180 407 300)" fill="black"/>
<rect x="357" y="250" width="50" height="50" transform="rotate(-180 357 250)" fill="black"/>
<rect x="307" y="200" width="50" height="50" transform="rotate(-180 307 200)" fill="black"/>
<rect x="357" y="150" width="50" height="50" transform="rotate(-180 357 150)" fill="black"/>
<rect x="407" y="100" width="50" height="50" transform="rotate(-180 407 100)" fill="black"/>
<rect x="457" y="50" width="50" height="50" transform="rotate(-180 457 50)" fill="black"/>
<rect x="407" y="350" width="50" height="50" transform="rotate(-180 407 350)" fill="black"/>
<rect x="407" y="350" width="50" height="50" transform="rotate(-180 407 350)" fill="black"/>
<rect x="357" y="300" width="50" height="50" transform="rotate(-180 357 300)" fill="black"/>
<rect x="307" y="250" width="50" height="50" transform="rotate(-180 307 250)" fill="black"/>
<rect x="257" y="200" width="50" height="50" transform="rotate(-180 257 200)" fill="black"/>
<rect x="307" y="150" width="50" height="50" transform="rotate(-180 307 150)" fill="black"/>
<rect x="357" y="100" width="50" height="50" transform="rotate(-180 357 100)" fill="black"/>
<rect x="407" y="50" width="50" height="50" transform="rotate(-180 407 50)" fill="black"/>
</g>
<g opacity="0.9">
<rect x="250" y="350" width="50" height="50" transform="rotate(-180 250 350)" fill="black"/>
<rect x="250" y="350" width="50" height="50" transform="rotate(-180 250 350)" fill="black"/>
<rect x="200" y="300" width="50" height="50" transform="rotate(-180 200 300)" fill="black"/>
<rect x="150" y="250" width="50" height="50" transform="rotate(-180 150 250)" fill="black"/>
<rect x="100" y="200" width="50" height="50" transform="rotate(-180 100 200)" fill="black"/>
<rect x="150" y="150" width="50" height="50" transform="rotate(-180 150 150)" fill="black"/>
<rect x="200" y="100" width="50" height="50" transform="rotate(-180 200 100)" fill="black"/>
<rect x="250" y="50" width="50" height="50" transform="rotate(-180 250 50)" fill="black"/>
<rect x="200" y="350" width="50" height="50" transform="rotate(-180 200 350)" fill="black"/>
<rect x="200" y="350" width="50" height="50" transform="rotate(-180 200 350)" fill="black"/>
<rect x="150" y="300" width="50" height="50" transform="rotate(-180 150 300)" fill="black"/>
<rect x="100" y="250" width="50" height="50" transform="rotate(-180 100 250)" fill="black"/>
<rect x="50" y="200" width="50" height="50" transform="rotate(-180 50 200)" fill="black"/>
<rect x="100" y="150" width="50" height="50" transform="rotate(-180 100 150)" fill="black"/>
<rect x="150" y="100" width="50" height="50" transform="rotate(-180 150 100)" fill="black"/>
<rect x="200" y="50" width="50" height="50" transform="rotate(-180 200 50)" fill="black"/>
<rect x="457" y="350" width="50" height="50" transform="rotate(-180 457 350)" fill="black"/>
<rect x="457" y="350" width="50" height="50" transform="rotate(-180 457 350)" fill="black"/>
<rect x="407" y="300" width="50" height="50" transform="rotate(-180 407 300)" fill="black"/>
<rect x="357" y="250" width="50" height="50" transform="rotate(-180 357 250)" fill="black"/>
<rect x="307" y="200" width="50" height="50" transform="rotate(-180 307 200)" fill="black"/>
<rect x="357" y="150" width="50" height="50" transform="rotate(-180 357 150)" fill="black"/>
<rect x="407" y="100" width="50" height="50" transform="rotate(-180 407 100)" fill="black"/>
<rect x="457" y="50" width="50" height="50" transform="rotate(-180 457 50)" fill="black"/>
<rect x="407" y="350" width="50" height="50" transform="rotate(-180 407 350)" fill="black"/>
<rect x="407" y="350" width="50" height="50" transform="rotate(-180 407 350)" fill="black"/>
<rect x="357" y="300" width="50" height="50" transform="rotate(-180 357 300)" fill="black"/>
<rect x="307" y="250" width="50" height="50" transform="rotate(-180 307 250)" fill="black"/>
<rect x="257" y="200" width="50" height="50" transform="rotate(-180 257 200)" fill="black"/>
<rect x="307" y="150" width="50" height="50" transform="rotate(-180 307 150)" fill="black"/>
<rect x="357" y="100" width="50" height="50" transform="rotate(-180 357 100)" fill="black"/>
<rect x="407" y="50" width="50" height="50" transform="rotate(-180 407 50)" fill="black"/>
</g>
</svg>
